<svg version="1.1" id="Layer_1" xmlns="http://www.w3.org/2000/svg" xmlns:xlink="http://www.w3.org/1999/xlink" x="0px" y="0px"
	 width="100%" viewBox="0 0 304 240" enable-background="new 0 0 304 240" xml:space="preserve">
<path fill="#000000" opacity="1.000000" stroke="none" 
	d="
M191.267624,162.424622 
	C188.702545,162.703690 186.548553,162.854172 184.392090,162.946991 
	C180.463043,163.116089 178.187393,161.757416 179.334412,157.337051 
	C180.200943,153.997604 178.460541,153.303970 175.571960,153.349213 
	C169.243835,153.448318 162.906860,153.541321 156.585342,153.311401 
	C152.206985,153.152145 150.936905,155.215469 151.447906,159.113022 
	C151.621063,160.433655 151.817719,161.751205 152.002853,163.070282 
	C152.433151,166.136322 151.295441,167.908432 148.010574,167.922195 
	C147.177948,167.925690 146.345566,167.966019 145.512909,167.978577 
	C135.594070,168.128250 135.424850,168.122391 135.730896,158.376892 
	C135.858170,154.324387 134.391205,153.179047 130.536499,153.285248 
	C126.668159,153.391830 122.672348,154.050003 118.368263,152.504562 
	C121.305779,149.500641 124.604362,150.913345 127.473488,150.836761 
	C136.520676,150.595276 136.346130,150.704895 136.700958,141.560867 
	C137.449081,122.281708 138.414734,103.010994 139.277206,83.736183 
	C139.296478,83.305489 139.149246,82.867325 138.867050,81.104347 
	C129.493683,95.909142 114.252907,98.620087 100.387039,104.270462 
	C99.256622,101.172035 101.216202,100.555099 102.423759,99.652153 
	C112.424866,92.173920 122.455635,84.735153 132.501282,77.316727 
	C139.166473,72.394669 140.446976,69.682877 138.031982,61.791637 
	C134.975479,51.804108 137.325882,42.342548 140.037918,32.891876 
	C141.028091,29.441427 140.775146,25.364668 144.773941,21.832403 
	C145.279465,27.249323 145.925568,31.748632 146.071350,36.264091 
	C146.334656,44.419682 146.304504,52.584869 146.386658,60.746155 
	C146.477951,69.814522 149.154282,73.613945 157.757446,76.295097 
	C163.576324,78.108528 168.846054,80.673103 173.155624,85.138687 
	C174.703323,86.742409 176.239563,88.644447 178.594818,89.177116 
	C183.379639,85.814018 182.654022,81.553345 181.115051,77.096893 
	C177.406860,66.358887 183.406342,57.244991 185.243530,46.461864 
	C188.413147,48.774471 188.005981,50.998001 188.135620,53.015381 
	C188.712006,61.985035 187.962906,70.978096 188.918686,79.963287 
	C189.490677,85.340637 191.734909,88.488380 197.001495,89.836868 
	C207.886551,92.623924 214.185181,101.330078 221.188919,109.073174 
	C221.439545,109.350258 221.271530,110.006035 221.346680,111.335457 
	C215.439789,109.550316 210.936798,105.923012 206.011963,103.212959 
	C201.070663,100.493835 196.242615,97.568901 190.429840,94.190750 
	C190.429840,101.138916 190.214142,107.320747 190.477448,113.482109 
	C190.938828,124.278030 191.857666,135.055664 192.235001,145.853195 
	C192.362503,149.502029 193.463593,151.002914 197.168121,150.794556 
	C200.987549,150.579742 204.829376,150.669586 208.658203,150.760757 
	C210.194458,150.797333 212.031662,150.135269 213.388489,152.427368 
	C210.090515,154.170944 206.645218,153.094299 203.397247,153.353821 
	C201.576752,153.499268 199.727600,153.478256 197.904022,153.350891 
	C194.659393,153.124252 192.750092,154.090027 193.099045,157.796341 
	C193.249847,159.398178 193.450485,161.197113 191.267624,162.424622 
M157.700165,150.761826 
	C163.522568,150.749283 169.346466,150.653152 175.166733,150.758530 
	C178.192551,150.813309 179.648621,149.925583 179.795853,146.553406 
	C180.230469,136.598557 181.077759,126.662453 181.608200,116.710739 
	C181.855911,112.063614 181.747986,107.397430 181.796051,102.739830 
	C181.810318,101.356606 181.603912,100.050575 180.213272,99.335861 
	C179.122162,98.775093 178.314774,99.355675 177.588715,100.108559 
	C172.779984,105.095093 166.318512,106.982635 160.130432,109.347214 
	C157.301865,110.428055 154.623596,112.301025 150.155838,111.543236 
	C156.892899,104.636070 164.904266,100.543686 171.781937,94.204765 
	C163.735672,89.462791 156.398285,85.138588 148.954803,80.751862 
	C147.695435,83.325615 148.145782,85.345589 148.241394,87.276138 
	C149.203110,106.691971 150.375397,126.098701 151.147568,145.521545 
	C151.316254,149.764435 152.817902,151.233612 157.700165,150.761826 
M139.280701,142.512573 
	C138.951660,148.317444 138.768112,154.135468 138.245148,159.922806 
	C137.862900,164.152756 139.926666,164.914642 143.573929,164.921783 
	C147.271225,164.929016 149.117218,164.065872 148.847031,159.871078 
	C148.259048,150.743042 148.069351,141.590012 147.656433,132.449905 
	C146.980865,117.496452 146.292679,102.543312 145.511688,87.595169 
	C145.406128,85.574959 145.619583,83.272064 142.368698,80.593361 
	C141.307053,101.705261 140.304825,121.635818 139.280701,142.512573 
M188.666840,130.504684 
	C188.682220,121.370171 187.848557,112.330910 186.188095,103.332901 
	C185.171875,103.932892 184.686539,104.496925 184.658142,105.083107 
	C183.828613,122.199577 183.050156,139.318512 182.247696,156.436325 
	C182.119659,159.167603 183.691208,159.759323 186.031952,159.810059 
	C188.828018,159.870667 189.947540,158.675735 189.802094,155.903870 
	C189.375031,147.765076 189.041336,139.621368 188.666840,130.504684 
M142.919525,35.456944 
	C142.759735,34.977814 142.542511,34.962986 142.293060,35.426033 
	C142.215683,35.569695 142.173019,35.736900 142.139206,35.898502 
	C141.189163,40.437210 139.931427,44.938686 139.372299,49.525284 
	C138.647263,55.472965 140.567780,60.972507 143.286972,66.251770 
	C143.272873,56.098194 144.262711,46.024670 142.919525,35.456944 
M132.374664,81.054550 
	C129.048477,83.521065 125.720383,85.985031 122.396599,88.454788 
	C119.098885,90.905159 115.805511,93.361366 111.348251,96.680214 
	C123.256508,93.529930 131.498795,87.945297 137.645126,77.486374 
	C135.382385,79.013077 134.156082,79.840469 132.374664,81.054550 
M157.423645,79.219765 
	C155.443176,78.693947 153.462692,78.168121 151.482224,77.642303 
	C151.347092,77.976944 151.211960,78.311584 151.076828,78.646217 
	C159.818253,83.765945 168.559662,88.885674 177.301086,94.005402 
	C171.896652,87.734863 166.443192,81.622200 157.423645,79.219765 
M184.490738,79.316376 
	C184.616409,79.622475 184.708572,79.948807 184.877579,80.228737 
	C185.032227,80.484909 185.269943,80.690918 185.285583,80.708656 
	C185.285583,74.165916 185.285583,67.483368 185.285583,60.800819 
	C182.621613,66.744759 181.877304,72.681862 184.490738,79.316376 
M142.218964,77.793243 
	C144.544556,78.576263 146.147507,77.821358 146.751404,75.439453 
	C147.142227,73.898010 146.834198,72.398796 145.245895,71.617310 
	C143.806381,70.909019 142.238739,70.890083 141.145172,72.184883 
	C139.607834,74.005119 139.984207,75.837906 142.218964,77.793243 
M202.593063,97.750854 
	C204.239014,98.591568 205.626511,100.065956 208.069580,100.257072 
	C204.517090,94.480179 198.655334,94.043610 193.467743,92.340820 
	C196.296875,94.042572 199.126022,95.744316 202.593063,97.750854 
M164.533463,103.961853 
	C168.987640,103.136902 172.949783,101.580772 176.083176,96.386719 
	C170.744019,98.041168 168.065933,101.346100 164.533463,103.961853 
M186.944107,91.041367 
	C188.736893,89.756691 189.306183,88.238472 187.299286,86.782219 
	C186.101822,85.913322 184.662399,86.279373 184.013428,87.661903 
	C182.946609,89.934593 184.208420,90.937805 186.944107,91.041367 
z"/>
<path fill="#000000" opacity="1.000000" stroke="none" 
	d="
M42.680473,88.999870 
	C42.686485,79.845963 42.664200,71.191864 42.725010,62.538349 
	C42.735863,60.994114 42.194576,58.751331 44.615627,58.618168 
	C47.298004,58.470642 47.138924,60.791859 47.140945,62.583096 
	C47.171768,89.876060 47.179096,117.169075 47.144791,144.462021 
	C47.142643,146.171356 47.607044,148.632339 44.884537,148.612976 
	C42.125072,148.593384 42.722836,146.099518 42.718117,144.418762 
	C42.666744,126.112579 42.682831,107.806206 42.680473,88.999870 
z"/>
<path fill="#000000" opacity="1.000000" stroke="none" 
	d="
M271.333191,73.006210 
	C271.334015,96.463181 271.337128,119.421112 271.328857,142.379044 
	C271.328339,143.874481 271.294983,145.374344 271.173157,146.863647 
	C271.100494,147.752121 270.550415,148.442261 269.626129,148.557632 
	C268.539001,148.693359 267.533722,148.258865 267.303253,147.158997 
	C267.000092,145.712021 266.878113,144.202942 266.876953,142.720413 
	C266.856659,116.435318 266.865631,90.150192 266.873688,63.865070 
	C266.873993,62.867817 266.889526,61.867550 266.967194,60.874096 
	C267.064545,59.628922 267.491974,58.522144 268.946259,58.445644 
	C270.692688,58.353771 271.243622,59.560646 271.266541,61.029392 
	C271.326202,64.854736 271.315460,68.681168 271.333191,73.006210 
z"/>
<path fill="#000000" opacity="1.000000" stroke="none" 
	d="
M147.438141,208.509644 
	C145.149231,205.049713 143.060806,201.888443 140.343842,197.775772 
	C139.304230,204.288681 140.562897,209.992706 138.006927,215.178528 
	C136.409271,206.831207 136.551224,198.556244 137.640808,190.115021 
	C143.709091,194.877625 146.189331,201.982162 152.124146,207.133301 
	C152.124146,201.521835 152.124146,195.910370 152.124146,189.347900 
	C155.748672,193.512054 155.918365,210.594757 153.160660,215.472565 
	C149.972641,214.357529 149.597824,210.887405 147.438141,208.509644 
z"/>
<path fill="#000000" opacity="1.000000" stroke="none" 
	d="
M89.677216,190.080200 
	C95.782646,194.291977 97.488792,207.809570 92.922745,213.074249 
	C88.458382,218.221680 79.150749,216.722824 76.848228,210.329208 
	C74.987160,205.161407 75.202972,199.817001 77.047783,194.680878 
	C78.617699,190.310074 82.083496,189.114120 89.677216,190.080200 
M91.164047,195.787460 
	C89.327400,192.926529 86.745239,191.791306 83.520805,192.940598 
	C80.504959,194.015549 79.339233,196.528473 79.307762,199.586563 
	C79.280586,202.227753 79.115082,204.904099 79.465569,207.503571 
	C79.927475,210.929428 82.246773,212.712662 85.674431,212.656998 
	C89.053154,212.602142 91.385765,210.962860 91.740776,207.394424 
	C92.100822,203.775269 92.179665,200.137360 91.164047,195.787460 
z"/>
<path fill="#000000" opacity="1.000000" stroke="none" 
	d="
M295.395233,206.537811 
	C292.078735,204.976151 288.944000,203.823959 286.014984,202.281189 
	C282.672455,200.520645 281.236298,197.679840 282.652985,193.923325 
	C284.040314,190.244736 288.743469,188.459915 293.852692,189.880539 
	C297.039825,190.766693 299.539825,192.515442 298.865875,196.437912 
	C296.797638,197.278305 296.384064,195.645370 295.558319,194.742233 
	C293.839172,192.861969 291.735352,192.099014 289.258484,192.724518 
	C287.585571,193.147003 286.028931,194.006149 285.704834,195.847458 
	C285.352814,197.847260 286.867554,198.874649 288.422424,199.557602 
	C290.704437,200.559998 293.100067,201.302521 295.388702,202.291367 
	C298.577240,203.669067 300.619843,205.966339 300.128784,209.654434 
	C299.647980,213.266006 297.145233,215.111435 293.801819,215.846817 
	C290.408905,216.593094 287.109985,216.229385 284.333374,213.966751 
	C282.676086,212.616211 280.973511,211.065460 282.506683,208.535629 
	C284.804474,208.114380 285.066437,210.391510 286.330353,211.276443 
	C289.088196,213.207352 291.982391,213.265732 294.810394,211.781479 
	C297.006195,210.629059 297.199707,208.757538 295.395233,206.537811 
z"/>
<path fill="#000000" opacity="1.000000" stroke="none" 
	d="
M240.592865,201.403992 
	C237.690674,198.302017 237.210831,195.051682 239.721909,192.144699 
	C242.736908,188.654312 247.028519,188.987106 250.863876,190.269913 
	C253.434723,191.129791 255.827347,193.079559 254.626663,196.573563 
	C252.581879,197.231598 252.239441,195.610550 251.394882,194.687973 
	C249.368622,192.474564 246.933273,191.926895 244.154861,193.111664 
	C242.689117,193.736679 241.541626,194.720535 241.523666,196.422729 
	C241.507767,197.932480 242.570847,198.873306 243.836716,199.407211 
	C246.136063,200.376984 248.522003,201.140701 250.825790,202.100784 
	C254.153687,203.487656 256.629150,205.679199 256.078339,209.642899 
	C255.546951,213.467102 252.766342,215.243622 249.230759,215.942719 
	C242.899796,217.194565 237.811447,213.598450 238.599960,208.471298 
	C240.345200,208.119095 240.778168,209.695236 241.635132,210.590515 
	C243.867706,212.922928 246.611343,213.121750 249.491699,212.442947 
	C250.988220,212.090271 252.283524,211.237839 252.548965,209.514618 
	C252.817429,207.771759 251.848358,206.570511 250.435043,205.894943 
	C247.293259,204.393204 244.071808,203.058136 240.592865,201.403992 
z"/>
<path fill="#000000" opacity="1.000000" stroke="none" 
	d="
M112.697586,191.681061 
	C114.315041,189.441803 116.240700,189.099915 117.181686,191.329163 
	C120.431099,199.027222 123.330643,206.872940 125.683060,215.180008 
	C121.594734,213.837646 120.936478,208.671951 115.221138,208.934204 
	C109.865334,209.179962 108.405151,212.846176 105.154549,215.391739 
	C106.023964,206.910507 109.848412,199.648483 112.697586,191.681061 
M112.337425,201.733322 
	C112.040733,203.104385 110.685738,204.362396 111.974770,206.040375 
	C114.176933,206.456573 116.399208,206.295670 118.778938,205.385941 
	C118.234146,202.034714 117.102417,199.059814 115.320511,196.200577 
	C113.346939,197.474457 113.448975,199.527908 112.337425,201.733322 
z"/>
<path fill="#000000" opacity="1.000000" stroke="none" 
	d="
M29.016422,212.716400 
	C31.481876,212.874863 33.715832,212.202866 36.290642,214.664703 
	C30.754871,216.585358 25.972536,216.387970 21.224836,215.248291 
	C19.452219,214.822784 19.715342,212.847809 19.706423,211.384033 
	C19.670921,205.556717 19.765083,199.727859 19.668232,193.901962 
	C19.619589,190.976028 20.755026,189.433289 23.763231,189.726593 
	C27.546623,190.095490 31.568279,188.626419 35.516869,190.973511 
	C33.281464,193.987640 30.409206,192.710602 27.990227,192.889450 
	C25.263042,193.091095 23.089127,193.331451 23.051128,196.928513 
	C23.011972,200.635071 25.252108,200.743683 27.971020,200.827011 
	C30.117668,200.892792 32.612175,200.012848 34.385899,202.237625 
	C32.898838,205.016586 30.468884,204.038010 28.493378,204.077087 
	C25.397381,204.138321 22.974773,204.282440 22.960239,208.498718 
	C22.945181,212.867645 25.596922,212.800537 29.016422,212.716400 
z"/>
<path fill="#000000" opacity="1.000000" stroke="none" 
	d="
M180.824982,209.733246 
	C178.813400,209.490402 177.144257,209.505585 175.492935,209.341461 
	C171.994781,208.993790 169.194504,209.664520 168.276276,213.646851 
	C168.026321,214.730865 167.196777,215.226044 166.211594,215.241776 
	C165.804794,214.899292 165.319153,214.645920 165.348984,214.493256 
	C166.951172,206.292526 170.561371,198.804855 173.837982,191.217560 
	C174.685486,189.255066 176.907883,189.298645 177.743423,191.212646 
	C180.931808,198.516327 183.977859,205.894135 186.161926,213.581192 
	C186.334167,214.187408 186.037369,214.900131 184.942047,215.143936 
	C182.439850,214.496582 183.112595,211.185028 180.824982,209.733246 
M179.023010,203.091904 
	C178.078918,200.741058 177.766785,198.079224 175.442795,195.487915 
	C174.095978,199.376099 172.064102,202.298248 171.808197,206.294525 
	C173.975876,206.294525 175.756866,206.283691 177.537689,206.297470 
	C179.419907,206.312042 179.789124,205.328445 179.023010,203.091904 
z"/>
<path fill="#000000" opacity="1.000000" stroke="none" 
	d="
M63.441982,207.345215 
	C65.429474,209.853958 65.017448,212.006149 62.485630,214.025024 
	C56.785858,218.570007 48.504700,215.816391 46.626637,208.756927 
	C45.486828,204.472504 45.609673,200.199066 46.723522,195.935776 
	C47.601910,192.573730 49.632660,190.262207 53.148598,189.795349 
	C56.988327,189.285477 60.912552,189.081100 63.679520,192.611069 
	C64.904312,194.173599 66.003418,195.912613 64.284004,198.668869 
	C60.307400,194.364334 56.149055,188.144669 50.429157,195.865982 
	C47.432350,199.911362 49.262272,210.014694 52.661312,211.910400 
	C56.489304,214.045303 59.926811,212.588547 63.441982,207.345215 
z"/>
<path fill="#000000" opacity="1.000000" stroke="none" 
	d="
M196.965973,212.538544 
	C197.286453,204.824295 195.871048,197.433807 197.872025,190.179718 
	C200.643661,190.733765 200.239441,192.486176 200.267136,193.853943 
	C200.351028,197.998123 200.598053,202.171310 200.230576,206.283981 
	C199.787949,211.237656 201.378616,213.418884 206.579544,212.753998 
	C208.513458,212.506760 210.847427,211.979584 212.579559,213.924332 
	C208.426651,217.435303 199.561691,216.809631 196.965973,212.538544 
z"/>
<path fill="#000000" opacity="1.000000" stroke="none" 
	d="
M269.083832,215.334671 
	C267.258331,214.854935 267.543549,213.588547 267.533325,212.458527 
	C267.476349,206.151306 267.417603,199.844040 267.384155,193.536667 
	C267.377319,192.243668 267.180023,190.824356 270.089539,189.652893 
	C270.916626,198.514175 271.776489,206.861664 269.083832,215.334671 
z"/>
<path fill="#000000" opacity="1.000000" stroke="none" 
	d="
M226.330093,212.412933 
	C226.247543,213.848404 226.066406,214.778503 224.232910,215.478516 
	C224.232910,206.882248 224.232910,198.710800 224.232910,190.539352 
	C224.654373,190.513260 225.075836,190.487152 225.497299,190.461060 
	C227.324982,197.510696 225.920074,204.819321 226.330093,212.412933 
z"/>
</svg>